#!OML:ASF H:\Dans Jumps\Project 1\Capture day 1\Session 1\subject.ASF
:FULLY-SPECIFIED
:DEGREES
623
root 0.599227 17.72 2.43226 5.9909 -0.652218 -1.57672
lowerback -0.632633 -0.310094 -0.33707
upperback 3.4438 -0.457661 1.55108
thorax 3.91331 -0.266551 1.76858
lowerneck -12.1332 0.142238 -1.79394
upperneck 37.1511 0.208084 1.3149
head 14.9197 0.00897337 0.900842
rclavicle -1.88845e-015 -1.19271e-014
rhumerus -26.5675 -18.4177 -78.827
rradius 23.2419
rwrist 34.7715
rhand -18.4817 -26.4622
rfingers 7.12502
rthumb 7.80539 -56.2981
lclavicle -1.88845e-015 -1.19271e-014
lhumerus -22.0763 -0.0297647 88.4822
lradius 17.0394
lwrist 1.23901
lhand -24.2868 -3.63344
lfingers 7.12502
lthumb 2.20041 26.335
rfemur -15.5993 -2.48171 19.6737
rtibia 22.1873
rfoot -11.1688 -2.62483
rtoes 12.8548
lfemur -14.1305 8.07165 -17.8862
ltibia 19.4654
lfoot -8.74746 4.32444
ltoes -1.6134
624
root 0.598624 17.7201 2.43382 5.99127 -0.627034 -1.58069
lowerback -0.629794 -0.312441 -0.341997
upperback 3.45036 -0.46083 1.55442
thorax 3.91871 -0.268407 1.77469
lowerneck -12.1411 0.137784 -1.79136
upperneck 37.1646 0.201311 1.31401
head 14.9282 0.00632335 0.899154
rclavicle -6.95746e-015 0
rhumerus -26.7277 -18.7399 -78.6264
rradius 23.0569
rwrist 35.0646
rhand -18.4592 -26.4631
rfingers 7.12502
rthumb 7.82711 -56.2983
lclavicle -6.95746e-015 0
lhumerus -22.2666 0.0656995 88.4371
lradius 16.9016
lwrist 1.09243
lhand -24.2203 -3.48425
lfingers 7.12502
lthumb 2.26463 26.4835
rfemur -15.5877 -2.48755 19.681
rtibia 22.1808
rfoot -11.1716 -2.64673
rtoes 12.8381
lfemur -14.1301 8.06797 -17.8791
ltibia 19.4668
lfoot -8.75564 4.30801
ltoes -1.61715
625
root 0.598065 17.7202 2.43526 5.99383 -0.601175 -1.58383
lowerback -0.627708 -0.315592 -0.34712
upperback 3.45521 -0.465041 1.55753
thorax 3.92279 -0.270768 1.78061
lowerneck -12.147 0.133443 -1.78557
upperneck 37.1751 0.195678 1.30793
head 14.9348 0.00391896 0.894862
rclavicle -1.68967e-015 9.93923e-015
rhumerus -26.8779 -19.0509 -78.4334
rradius 22.8762
rwrist 35.3593
rhand -18.4396 -26.4649
rfingers 7.12502
rthumb 7.84607 -56.2993
lclavicle -1.68967e-015 9.93923e-015
lhumerus -22.4519 0.140846 88.3944
lradius 16.7692
lwrist 0.970749
lhand -24.1433 -3.36095
lfingers 7.12502
lthumb 2.33894 26.606
rfemur -15.5789 -2.49636 19.6874
rtibia 22.1742
rfoot -11.1735 -2.66624
rtoes 12.8238
lfemur -14.1326 8.06457 -17.8736
ltibia 19.4677
lfoot -8.76325 4.28989
ltoes -1.61806
626
root 0.59745 17.7204 2.43655 5.99875 -0.576446 -1.5882
lowerback -0.626571 -0.318569 -0.351659
upperback 3.45793 -0.469032 1.56111
thorax 3.92519 -0.27299 1.7867
lowerneck -12.1483 0.130816 -1.77824
upperneck 37.1811 0.19318 1.299
head 14.9381 0.00270611 0.889514
rclavicle -1.49089e-015 -3.18055e-015
rhumerus -27.0222 -19.3455 -78.249
rradius 22.7063
rwrist 35.6493
rhand -18.4088 -26.47
rfingers 7.12502
rthumb 7.87582 -56.3033
lclavicle -1.49089e-015 -3.18055e-015
lhumerus -22.6312 0.208371 88.3508
lradius 16.6416
lwrist 0.849449
lhand -24.0507 -3.24826
lfingers 7.12502
lthumb 2.42835 26.7177
rfemur -15.5725 -2.50328 19.6955
rtibia 22.1656
rfoot -11.1739 -2.68542
rtoes 12.8137
lfemur -14.1381 8.06047 -17.8668
ltibia 19.4687
lfoot -8.76929 4.27307
ltoes -1.62311
627
root 0.596871 17.7206 2.43778 6.00595 -0.550708 -1.59562
lowerback -0.628141 -0.322689 -0.352396
upperback 3.45878 -0.474677 1.56566
thorax 3.92722 -0.275919 1.79158
lowerneck -12.1464 0.129683 -1.77173
upperneck 37.1844 0.193822 1.28814
head 14.9393 0.00245905 0.883962
rclavicle 6.26172e-015 4.37326e-015
rhumerus -27.1604 -19.6145 -78.0769
rradius 22.5523
rwrist 35.9215
rhand -18.3931 -26.452
rfingers 7.12502
rthumb 7.89092 -56.2847
lclavicle 6.26172e-015 4.37326e-015
lhumerus -22.8057 0.300097 88.2974
lradius 16.5358
lwrist 0.708621
lhand -23.9497 -3.16121
lfingers 7.12502
lthumb 2.52591 26.8036
rfemur -15.5668 -2.51329 19.7069
rtibia 22.1537
rfoot -11.1726 -2.70124
rtoes 12.7957
lfemur -14.1466 8.05413 -17.8571
ltibia 19.4702
lfoot -8.77553 4.25696
ltoes -1.6224
628
root 0.596297 17.7209 2.43896 6.01291 -0.524376 -1.6064
lowerback -0.629274 -0.326544 -0.348095
upperback 3.45807 -0.480084 1.57021
thorax 3.92732 -0.27855 1.79364
lowerneck -12.1397 0.128597 -1.7679
upperneck 37.1849 0.193858 1.28097
head 14.9381 0.00209549 0.880274
rclavicle -6.55989e-015 -6.16232e-015
rhumerus -27.2965 -19.8483 -77.9219
rradius 22.4226
rwrist 36.165
rhand -18.372 -26.4373
rfingers 7.12502
rthumb 7.91126 -56.2692
lclavicle -6.55989e-015 -6.16232e-015
lhumerus -22.9782 0.399196 88.2377
lradius 16.4404
lwrist 0.526867
lhand -23.8641 -3.14784
lfingers 7.12502
lthumb 2.60859 26.816
rfemur -15.5586 -2.52272 19.7217
rtibia 22.138
rfoot -11.17 -2.7162
rtoes 12.8072
lfemur -14.1552 8.04678 -17.8436
ltibia 19.4721
lfoot -8.78055 4.24138
ltoes -1.62442
